<?xml version="1.0" standalone="no"?>
<!DOCTYPE svg PUBLIC "-//W3C//DTD SVG 20010904//EN"
 "http://www.w3.org/TR/2001/REC-SVG-20010904/DTD/svg10.dtd">
<svg version="1.0" xmlns="http://www.w3.org/2000/svg"
 width="600.000000pt" height="600.000000pt" viewBox="0 0 600.000000 600.000000"
 preserveAspectRatio="xMidYMid meet">

<g transform="translate(0.000000,600.000000) scale(0.100000,-0.100000)"
fill="#000000" stroke="none">
<path d="M3435 5453 c-16 -3 -34 -9 -39 -14 -6 -5 -19 -9 -30 -9 -12 -1 -59
-14 -106 -30 -47 -17 -95 -30 -108 -30 -12 0 -46 -13 -75 -30 -30 -16 -62 -30
-73 -30 -20 0 -134 -25 -194 -42 -19 -6 -55 -31 -80 -57 -47 -48 -103 -81
-139 -81 -11 0 -26 -9 -33 -20 -7 -11 -22 -20 -32 -20 -11 0 -34 -15 -51 -32
-48 -50 -93 -85 -170 -135 -96 -62 -237 -188 -307 -273 -114 -141 -173 -242
-213 -368 -10 -29 -26 -63 -35 -75 -17 -21 -19 -21 -37 -4 -27 24 -33 22 -33
-12 0 -17 -4 -33 -10 -36 -12 -7 -13 -75 -2 -91 4 -6 16 -15 26 -21 16 -9 19
-20 17 -69 -2 -50 5 -76 44 -169 25 -60 45 -117 45 -127 0 -9 14 -31 30 -48
29 -30 30 -33 25 -103 -4 -45 -12 -82 -23 -97 -31 -45 -52 -103 -67 -194 -19
-111 -19 -197 0 -306 20 -109 38 -164 91 -276 66 -138 139 -192 200 -149 21
14 22 11 63 -113 23 -70 71 -185 105 -257 35 -71 71 -159 81 -195 10 -36 46
-160 81 -277 35 -117 65 -218 66 -224 2 -7 -18 -23 -44 -37 -26 -13 -68 -44
-92 -68 -63 -60 -110 -90 -194 -118 -40 -13 -85 -33 -99 -43 -46 -32 -145 -93
-152 -93 -12 0 -174 -99 -200 -123 -14 -13 -47 -36 -73 -50 -26 -15 -57 -42
-69 -60 -12 -17 -52 -61 -87 -97 -77 -77 -152 -176 -152 -199 0 -9 15 8 32 38
38 65 234 275 292 313 22 15 55 38 71 51 40 32 147 97 210 127 28 13 74 40
102 60 29 21 81 47 115 60 93 32 137 58 193 109 56 53 107 85 146 95 36 8 45
-24 17 -56 -68 -78 -119 -202 -105 -256 3 -9 5 -2 6 16 0 17 5 32 11 32 5 0
12 17 16 38 6 29 75 142 87 142 2 0 4 -73 4 -162 1 -111 5 -164 13 -166 12 -4
35 -52 31 -66 -2 -9 29 -76 39 -86 3 -3 7 -16 8 -30 0 -14 6 -26 13 -29 13 -4
33 -24 74 -76 17 -21 36 -44 43 -51 6 -7 12 -17 12 -23 0 -6 5 -11 10 -11 6 0
15 -20 22 -45 7 -25 18 -45 25 -45 7 0 13 -4 13 -10 0 -5 11 -12 25 -16 14 -3
25 -10 25 -15 0 -25 38 33 43 67 4 21 11 40 17 42 14 5 13 28 -2 52 -11 17
-10 22 2 30 17 11 63 4 68 -11 2 -5 14 -9 27 -9 18 0 25 -7 31 -33 4 -17 9
-26 11 -19 9 26 22 11 17 -20 -4 -30 -3 -31 6 -9 6 14 16 21 25 17 10 -4 15 1
15 14 0 11 7 20 15 20 9 0 12 6 8 16 -5 14 2 16 54 11 66 -6 72 -1 73 61 0 26
21 52 42 52 10 0 9 3 -2 11 -11 8 -12 12 -2 16 14 6 16 43 2 43 -5 0 -10 5
-10 10 0 6 13 10 30 10 22 0 28 4 24 15 -4 9 0 15 9 15 8 0 17 10 20 21 5 18
11 21 36 16 24 -5 29 -3 24 8 -9 25 10 16 37 -15 13 -17 30 -30 37 -30 7 0 13
-11 13 -26 0 -19 -4 -25 -15 -20 -10 3 -15 -1 -15 -14 0 -10 -7 -25 -15 -33
-11 -12 -12 -17 -2 -21 9 -5 9 -7 0 -12 -7 -3 -13 -12 -13 -20 0 -19 -10 -18
-25 3 -12 16 -12 14 -8 -10 3 -15 9 -27 14 -27 5 0 9 -5 9 -11 0 -6 -7 -9 -15
-5 -9 3 -15 0 -15 -8 0 -8 -6 -16 -12 -19 -7 -2 -13 -20 -13 -39 0 -24 4 -34
13 -31 7 3 12 -3 12 -16 0 -12 5 -21 10 -21 6 0 10 -4 10 -10 0 -5 -10 -10
-22 -10 -12 0 -19 -3 -15 -6 11 -11 57 6 57 21 0 8 7 15 16 15 9 0 35 15 58
32 22 18 46 36 51 40 43 32 142 130 165 163 15 22 37 51 49 64 12 13 21 30 21
36 0 7 7 15 15 19 8 3 15 12 15 20 0 8 3 16 8 18 11 5 52 66 52 78 0 5 4 10 9
10 5 0 14 12 20 27 6 16 22 46 36 68 13 22 24 50 25 63 0 12 4 22 9 22 5 0 12
13 16 30 4 16 11 30 16 30 5 0 9 9 9 21 0 11 4 18 9 15 5 -3 11 1 14 8 3 8 1
17 -6 20 -7 4 -2 4 11 2 15 -3 22 0 19 7 -5 15 39 72 99 129 24 23 44 47 44
54 0 6 7 14 15 18 8 3 15 17 15 31 0 24 12 30 48 26 7 -1 12 10 12 29 0 18 8
43 19 56 l18 23 23 -24 c32 -35 67 -42 217 -49 200 -9 223 -16 350 -110 26
-19 48 -24 140 -29 181 -11 271 -30 357 -76 76 -41 108 -53 71 -27 -111 76
-203 102 -390 112 -143 7 -149 8 -193 48 -79 71 -138 87 -390 102 -111 7 -113
7 -155 43 -59 51 -82 64 -162 91 -85 28 -112 44 -131 81 -26 51 -18 116 27
208 74 153 113 274 142 446 9 50 24 133 34 185 14 75 17 139 16 305 -1 116 -6
230 -11 255 -17 91 20 170 79 170 19 0 30 6 34 20 8 25 -10 50 -35 50 -46 0
-47 45 -3 270 9 47 17 128 18 180 2 106 21 165 75 226 53 61 63 120 57 342 -6
221 -14 258 -78 352 -49 72 -70 90 -159 138 -65 35 -78 47 -102 94 -15 29 -35
62 -43 73 -8 10 -15 25 -15 32 0 13 -147 143 -162 143 -5 0 -30 14 -55 32 -45
30 -49 31 -172 34 -69 2 -160 5 -201 7 -41 2 -88 2 -105 0z m-518 -255 c-3 -8
-6 -5 -6 6 -1 11 2 17 5 13 3 -3 4 -12 1 -19z m1551 -433 c-3 -3 -9 2 -12 12
-6 14 -5 15 5 6 7 -7 10 -15 7 -18z m-1421 -97 c7 -6 16 -7 22 -4 5 4 21 1 36
-6 22 -10 32 -9 62 8 27 14 37 16 41 6 2 -6 9 -9 15 -5 7 4 17 8 22 9 6 1 17
3 25 5 9 3 16 -5 18 -18 3 -18 7 -21 20 -14 26 13 131 3 163 -16 16 -10 30
-24 30 -33 1 -11 2 -11 6 3 2 9 9 17 15 17 19 0 68 -34 68 -47 0 -7 6 -13 13
-13 7 0 28 -12 45 -27 25 -20 29 -29 20 -35 -8 -6 -2 -7 17 -3 28 5 33 2 55
-35 14 -22 33 -50 43 -62 12 -15 14 -25 7 -32 -13 -13 -13 -46 0 -46 6 0 10
-7 10 -15 0 -8 7 -15 15 -15 9 0 16 -10 16 -22 3 -55 14 -128 21 -148 4 -8 9
-35 13 -60 3 -24 11 -50 17 -58 9 -10 9 -15 -1 -22 -8 -4 -10 -13 -6 -20 5 -9
-5 -10 -41 -3 -97 16 -141 9 -176 -30 -14 -15 -30 -27 -37 -27 -18 0 -51 -38
-51 -60 0 -24 -45 -70 -69 -70 -9 0 -24 9 -34 20 -14 17 -29 20 -96 20 -65 0
-80 -3 -85 -17 -5 -13 -9 -14 -15 -5 -6 9 -15 8 -42 -5 -19 -9 -39 -23 -45
-31 -9 -13 -13 -11 -27 9 -10 13 -17 28 -17 33 0 5 -11 19 -25 32 -19 17 -25
33 -25 64 0 29 -4 40 -15 40 -8 0 -15 -9 -15 -20 0 -13 -5 -18 -14 -14 -8 3
-12 12 -9 20 3 8 2 14 -3 13 -22 -4 -34 2 -34 16 0 8 -7 15 -15 15 -9 0 -12
-6 -8 -16 4 -12 -2 -11 -32 6 -38 21 -103 26 -220 16 -22 -2 -83 -5 -134 -6
-84 -2 -102 -6 -156 -34 -79 -40 -105 -62 -139 -113 -32 -48 -27 -68 15 -59
22 4 29 2 29 -10 0 -19 -28 -30 -42 -16 -11 11 -48 4 -48 -9 0 -5 -9 -9 -19
-9 -17 0 -64 -44 -73 -69 -1 -5 -15 -12 -29 -16 l-27 -7 19 68 c10 37 23 72
29 78 5 5 10 22 10 37 0 38 43 128 80 167 17 17 26 32 21 32 -6 0 -11 7 -11
15 0 8 4 15 8 15 5 0 14 12 21 26 7 16 17 24 26 20 10 -3 12 0 8 12 -6 14 -4
15 9 4 14 -11 17 -9 23 18 4 16 10 30 15 30 4 0 18 20 30 45 12 25 26 45 31
45 5 0 9 6 9 13 0 6 16 30 36 52 19 22 38 53 41 68 4 20 9 25 16 18 18 -18 25
-13 32 21 8 33 45 98 57 98 4 0 21 13 38 29 34 31 151 92 213 111 21 7 41 18
43 25 3 7 13 11 22 9 9 -2 31 0 47 4 31 9 51 6 72 -10z m-521 -753 c-8 -8 -19
-15 -25 -15 -6 0 -11 -5 -11 -11 0 -5 -5 -7 -10 -4 -13 8 26 45 47 45 12 0 12
-2 -1 -15z m76 -42 c14 4 22 0 25 -14 5 -20 23 -27 23 -9 0 6 9 10 20 10 11 0
20 -4 20 -10 0 -5 15 -10 33 -10 38 -1 72 -19 72 -39 0 -8 24 -22 60 -33 63
-21 95 -42 95 -64 0 -7 5 -14 12 -16 18 -6 0 -28 -23 -28 -11 0 -30 -5 -42
-11 -12 -7 -46 -12 -77 -11 -30 0 -46 -2 -35 -5 11 -2 30 -9 43 -15 22 -11 20
-13 -25 -25 -46 -13 -264 -35 -272 -27 -6 6 23 29 59 47 l35 18 -49 -4 c-27
-3 -51 -9 -55 -15 -3 -5 -16 -12 -28 -16 -13 -4 -41 -25 -63 -46 -22 -21 -46
-40 -52 -43 -24 -7 -37 28 -38 98 0 113 41 204 93 205 15 0 27 5 27 10 0 6 6
10 14 10 8 0 23 11 34 24 13 18 22 22 30 14 7 -7 14 -4 24 11 11 18 14 19 16
5 3 -10 11 -14 24 -11z m398 -5 c0 -18 -2 -20 -9 -8 -6 8 -7 18 -5 22 9 14 14
9 14 -14z m92 -63 c15 -16 28 -34 28 -38 0 -10 -33 8 -50 27 -7 9 -21 16 -31
16 -12 0 -19 7 -19 18 0 41 19 35 72 -23z m508 15 c0 -5 -5 -10 -11 -10 -5 0
-7 5 -4 10 3 6 8 10 11 10 2 0 4 -4 4 -10z m0 -39 c0 -6 -13 -18 -30 -28 -16
-9 -30 -23 -30 -30 0 -7 -7 -13 -15 -13 -13 0 -14 3 -3 15 49 59 78 79 78 56z
m-185 -20 c38 -8 46 -42 13 -59 -21 -10 -102 -31 -185 -47 -32 -6 -33 -6 -33
28 0 54 47 87 120 86 30 -1 69 -4 85 -8z m501 -31 c8 0 14 5 14 12 0 9 3 9 12
0 7 -7 20 -12 30 -12 33 0 22 -38 -14 -48 -30 -8 -33 -11 -30 -45 l4 -37 -126
0 c-103 0 -126 3 -126 14 0 18 27 46 43 46 14 0 47 35 47 49 0 11 36 21 77 21
17 0 35 5 39 12 6 9 9 9 12 0 2 -7 10 -12 18 -12z m-812 -6 c9 -3 16 -12 16
-20 0 -8 7 -14 15 -14 16 0 28 -36 23 -71 -2 -20 -8 -23 -30 -21 -32 4 -36
-11 -12 -36 15 -15 15 -17 -5 -30 -24 -16 -28 -52 -6 -52 8 0 15 -4 15 -10 0
-5 7 -10 15 -10 8 0 15 -3 15 -6 0 -3 -7 -12 -15 -20 -8 -9 -15 -24 -15 -35 0
-24 -66 -116 -112 -154 -18 -16 -32 -32 -31 -36 2 -5 -3 -6 -11 -3 -7 3 -40
-4 -72 -15 -44 -15 -54 -21 -41 -27 10 -4 28 -2 40 4 12 6 33 14 47 17 23 6
23 5 -5 -14 -16 -12 -42 -21 -57 -21 -16 0 -28 -4 -28 -9 0 -6 -24 -12 -52
-14 l-53 -3 60 -2 c72 -2 140 21 190 65 19 17 35 34 35 38 0 3 13 18 28 33 58
55 140 207 128 238 -3 8 0 14 7 14 14 1 47 67 47 95 0 27 30 44 75 44 49 0 75
-18 75 -53 0 -14 9 -43 20 -63 11 -21 20 -43 20 -50 0 -8 4 -21 9 -31 6 -9 13
-34 16 -54 3 -21 9 -38 14 -38 4 0 14 -19 20 -42 7 -24 22 -50 33 -59 16 -15
17 -20 7 -37 -10 -17 -10 -26 0 -48 12 -27 10 -30 -30 -69 -62 -59 -90 -75
-131 -75 -21 0 -38 -4 -38 -10 0 -19 -47 -10 -74 15 -38 35 -79 34 -150 -4
-36 -19 -73 -31 -96 -31 l-38 0 16 -44 c13 -36 23 -46 53 -56 46 -16 64 -10
64 21 0 22 4 24 56 27 55 3 58 2 117 -47 34 -28 69 -51 79 -51 21 0 117 -32
121 -41 4 -9 55 2 72 16 8 8 35 21 60 30 49 19 80 48 80 74 0 9 -11 39 -24 67
-57 119 -68 145 -61 152 3 4 20 -1 36 -11 17 -9 38 -17 48 -17 9 0 22 -5 28
-11 12 -12 98 -24 278 -40 137 -11 175 -24 175 -56 0 -12 4 -23 8 -25 5 -1 12
-20 15 -40 4 -28 2 -38 -8 -38 -14 0 -30 -53 -21 -69 10 -16 -26 -97 -47 -107
-11 -5 -25 -18 -31 -29 -6 -11 -12 -22 -14 -24 -1 -3 -9 4 -17 15 -13 17 -14
17 -15 2 0 -20 -20 -27 -85 -26 -28 1 -51 -4 -53 -11 -2 -6 -10 -11 -18 -11
-8 0 -14 -6 -14 -14 0 -22 -48 -29 -82 -11 -17 8 -37 15 -45 15 -7 0 -13 7
-13 15 0 8 -9 15 -20 15 -11 0 -20 -4 -20 -10 0 -14 -28 -12 -32 2 -3 7 -29
13 -67 14 -34 2 -68 7 -75 13 -19 16 -43 -13 -27 -33 9 -11 4 -15 -28 -20 -22
-3 -59 -14 -83 -25 -42 -18 -49 -18 -122 -3 -75 15 -81 14 -154 -7 -113 -32
-170 -40 -206 -30 -61 18 -102 11 -135 -22 -17 -17 -31 -37 -31 -44 0 -7 -6
-15 -12 -18 -10 -3 -10 -7 -1 -17 12 -13 73 -5 73 11 0 5 49 9 109 9 68 0 111
4 113 11 2 5 21 14 43 20 53 13 396 12 430 -1 25 -9 27 -13 20 -48 -4 -20 -10
-39 -13 -42 -4 -3 -12 -13 -17 -24 -8 -14 -25 -19 -80 -22 -91 -5 -145 -10
-149 -15 -3 -2 -7 -16 -11 -31 -5 -21 -3 -29 9 -34 9 -3 16 -12 16 -20 0 -13
45 -20 88 -15 6 1 12 -3 12 -9 0 -5 7 -10 15 -10 8 0 15 5 15 10 0 6 42 10
105 10 58 0 105 -4 105 -9 0 -5 12 -12 27 -16 16 -4 34 -11 40 -17 15 -12 17
-68 3 -68 -5 0 -10 -13 -10 -30 0 -23 -4 -30 -20 -30 -14 0 -18 -5 -13 -16 5
-13 2 -15 -15 -9 -16 5 -22 2 -22 -9 0 -9 -4 -16 -10 -16 -5 0 -10 -7 -10 -15
0 -9 -7 -18 -15 -21 -8 -4 -15 -16 -15 -28 0 -31 -29 -69 -47 -61 -9 3 -21 -2
-28 -12 -11 -15 -30 -18 -118 -18 -69 -1 -110 -5 -120 -13 -22 -19 -127 -23
-134 -5 -4 11 -9 9 -20 -7 -8 -11 -21 -20 -29 -20 -8 0 -14 -4 -14 -10 0 -28
-75 -21 -157 16 -17 8 -36 14 -42 14 -6 0 -11 3 -11 8 0 18 -170 85 -194 76
-7 -3 -19 2 -26 11 -7 8 -17 15 -22 15 -5 0 -16 7 -24 15 -9 8 -26 15 -40 15
-13 0 -24 5 -24 10 0 6 -7 10 -15 10 -8 0 -15 5 -15 11 0 11 -63 79 -73 79 -8
0 -87 75 -87 83 0 3 -13 29 -30 55 -16 27 -30 55 -30 62 0 7 -11 28 -25 46
-19 25 -26 48 -29 94 -2 33 -8 66 -14 73 -5 6 -13 36 -17 65 -4 29 -12 55 -19
58 -7 3 -10 21 -8 47 2 26 -3 59 -14 83 -9 21 -19 59 -21 84 -3 25 -9 50 -14
56 -5 6 -11 27 -13 48 -6 47 -16 63 -27 45 -11 -18 -2 -273 11 -319 15 -51 12
-97 -6 -125 -20 -30 -34 -32 -34 -4 0 19 -1 19 -16 5 -20 -21 -58 -20 -80 1
-16 16 -54 92 -58 117 -1 6 -8 22 -16 36 -53 93 -82 274 -67 420 3 30 5 70 6
88 2 58 19 34 24 -35 3 -38 10 -86 14 -108 l9 -40 8 45 c5 25 9 62 11 82 2 20
6 41 10 47 10 17 35 13 36 -6 1 -16 2 -16 6 -1 13 51 68 10 91 -69 13 -45 13
-46 -14 -68 -20 -16 -27 -31 -28 -58 -1 -41 17 -55 43 -35 45 35 46 40 52 167
8 158 26 318 42 353 6 15 19 29 28 31 19 5 119 -39 131 -57 5 -7 8 -6 8 4 0
14 -56 60 -73 60 -10 0 -47 33 -47 42 0 5 6 8 14 8 7 0 19 7 26 15 9 10 32 15
74 15 l62 0 10 -80 c9 -77 9 -80 -13 -87 -20 -7 -21 -10 -8 -39 7 -18 27 -37
47 -47 20 -9 48 -34 63 -54 16 -21 37 -46 47 -57 32 -30 121 -86 139 -86 10 0
19 -5 21 -11 2 -7 44 -12 113 -14 61 -1 76 0 35 2 -41 2 -79 8 -84 13 -6 6
-18 10 -29 10 -35 0 -142 61 -180 103 -58 63 -67 97 -27 97 17 0 40 26 40 45
0 4 -18 4 -40 0 -33 -6 -40 -4 -40 9 0 9 -7 16 -15 16 -8 0 -15 9 -15 20 0 19
4 20 38 14 20 -3 56 -12 80 -20 23 -8 60 -14 81 -14 21 0 41 -3 45 -7 9 -9 56
-12 56 -3 0 3 14 11 31 17 35 13 72 2 64 -20 -4 -8 10 -12 47 -14 38 -1 61 5
88 22 20 13 50 25 66 27 23 2 30 9 34 33 7 41 38 85 68 96 24 9 24 12 19 69
-4 33 -5 60 -3 60 3 0 11 -3 20 -6z m-819 -24 c3 -5 1 -10 -4 -10 -6 0 -11 5
-11 10 0 6 2 10 4 10 3 0 8 -4 11 -10z m2005 -160 c0 -53 -2 -60 -20 -60 -18
0 -19 5 -13 48 5 41 18 72 29 72 2 0 4 -27 4 -60z m-410 30 c39 -10 -91 -23
-148 -14 l-47 7 35 12 c34 12 105 10 160 -5z m-723 -22 c-3 -7 -5 -2 -5 12 0
14 2 19 5 13 2 -7 2 -19 0 -25z m533 -84 c0 -8 -9 -14 -20 -14 -19 0 -27 19
-14 33 10 9 34 -4 34 -19z m18 -42 c-48 -10 5 -50 141 -110 33 -14 54 -17 84
-11 22 4 47 5 56 4 9 -2 28 -4 42 -4 33 -1 90 -56 82 -80 -3 -10 -2 -12 4 -6
11 14 69 55 78 55 3 0 0 -6 -7 -14 -7 -7 -25 -26 -40 -42 -30 -32 -55 -54 -62
-54 -3 0 -17 -5 -33 -12 -15 -6 -30 -12 -33 -13 -121 -37 -226 -32 -324 16
-64 31 -81 45 -145 118 -57 65 -46 131 21 131 17 0 28 5 28 13 0 10 17 14 63
13 34 0 54 -2 45 -4z m554 -18 c-3 -17 -8 -22 -15 -15 -11 11 -3 41 11 41 5 0
7 -12 4 -26z m-2422 -18 c0 -2 -7 -9 -15 -16 -13 -11 -14 -10 -9 4 5 14 24 23
24 12z m129 -50 c15 -18 11 -68 -5 -73 -19 -6 -44 27 -44 58 0 22 5 29 19 29
10 0 24 -6 30 -14z m-172 -48 c-3 -7 -5 -2 -5 12 0 14 2 19 5 13 2 -7 2 -19 0
-25z m2433 23 c0 -5 -7 -12 -16 -15 -14 -5 -15 -4 -4 9 14 17 20 19 20 6z
m-69 -170 c-8 -14 -8 -21 2 -24 28 -10 -45 -25 -97 -20 -64 7 -72 18 -21 27
19 4 35 11 35 16 0 6 6 10 14 10 8 0 21 6 28 13 34 34 61 19 39 -22z m-111
-481 c0 -5 -4 -10 -10 -10 -5 0 -10 5 -10 10 0 6 5 10 10 10 6 0 10 -4 10 -10z
m-160 -90 c0 -5 -4 -10 -10 -10 -5 0 -10 5 -10 10 0 6 5 10 10 10 6 0 10 -4
10 -10z m28 -41 c2 -5 17 -9 33 -9 28 0 43 -19 17 -21 -10 0 -10 -2 0 -6 15
-6 17 -99 2 -108 -5 -3 -10 -20 -10 -38 0 -22 -10 -42 -37 -69 -20 -21 -41
-38 -45 -38 -4 0 -8 18 -8 40 0 29 -4 40 -15 40 -8 0 -15 5 -15 10 0 15 -21
12 -42 -7 -17 -15 -18 -15 -18 0 0 10 -4 17 -10 17 -6 0 -10 26 -10 58 0 55 1
58 33 72 17 8 40 15 51 16 23 2 35 21 28 46 -4 17 -2 19 19 13 13 -4 26 -12
27 -16z m42 11 c0 -5 -4 -10 -10 -10 -5 0 -10 5 -10 10 0 6 5 10 10 10 6 0 10
-4 10 -10z m-950 -1230 c0 -11 -4 -20 -9 -20 -11 0 -22 26 -14 34 12 12 23 5
23 -14z m560 -400 c0 -5 -4 -10 -10 -10 -5 0 -10 5 -10 10 0 6 5 10 10 10 6 0
10 -4 10 -10z m-30 -90 c0 -5 -4 -10 -10 -10 -5 0 -10 5 -10 10 0 6 5 10 10
10 6 0 10 -4 10 -10z m-40 -30 c0 -5 -4 -10 -10 -10 -5 0 -10 5 -10 10 0 6 5
10 10 10 6 0 10 -4 10 -10z m-65 -210 c3 -5 1 -10 -4 -10 -6 0 -11 5 -11 10 0
6 2 10 4 10 3 0 8 -4 11 -10z"/>
<path d="M1910 2898 c0 -7 7 -22 16 -33 12 -17 16 -18 24 -5 6 10 3 20 -10 32
-23 21 -30 23 -30 6z"/>
<path d="M1830 2860 c0 -14 41 -70 52 -70 16 0 7 20 -22 50 -16 17 -30 26 -30
20z"/>
<path d="M1976 2651 c-4 -5 3 -15 15 -21 18 -10 20 -9 17 6 -4 20 -23 30 -32
15z"/>
<path d="M5970 2943 c0 -22 2 -25 10 -13 13 20 13 40 0 40 -5 0 -10 -12 -10
-27z"/>
<path d="M2335 937 c-7 -119 -1 -211 15 -232 4 -5 10 -19 13 -30 3 -11 3 9 0
45 -3 36 -10 74 -15 84 -7 12 -8 48 -3 95 12 116 13 161 5 161 -4 0 -11 -55
-15 -123z"/>
<path d="M3351 653 c-1 -7 -9 -13 -18 -13 -17 -1 -17 -1 0 -14 20 -15 23 -42
5 -49 -8 -4 -7 -6 3 -6 21 -1 32 40 20 71 -6 13 -10 17 -10 11z"/>
<path d="M3238 13 c7 -3 16 -2 19 1 4 3 -2 6 -13 5 -11 0 -14 -3 -6 -6z"/>
</g>
</svg>
